{"title":"THE YOUNG VICTORIA 2009 H.264 AAC MP4 TFKC BY STIG","uid":5016261,"size":1043021639,"categoryP":"video","categoryS":"handheld","magnet":"?xt=urn:btih:f0fea20f9178075500405bdcb71d5a943d81d14a&amp;dn=THE+YOUNG+VICTORIA+2009+H.264+AAC+MP4+TFKC+BY+STIG&amp;tr=udp%3A%2F%2Ftracker.openbittorrent.com%3A80&amp;tr=udp%3A%2F%2Fopen.demonii.com%3A1337&amp;tr=udp%3A%2F%2Ftracker.coppersurfer.tk%3A6969&amp;tr=udp%3A%2F%2Fexodus.desync.com%3A6969","seeders":0,"leechers":0,"uploader":"alanwatson","files":-1,"time":1248229683,"description":"sample rip included\n\n\nSynopsis\nTHE YOUNG VICTORIA is a lavish costume drama that focuses on the early life of Queen Victoria (Emily Blunt, MY SUMMER OF LOVE, THE DEVIL WEARS PRADA), one of the most venerated monarchs in British history. Born into nobility, her ascent to the throne was assured. Politically however, Victoria's inexperience meant that she relied heavily upon advisers to guide her. None more so than her cousin Prince Albert (Rupert Friend, PRIDE AND PREJUDICE), who, at the tender age of 21 she married and went on to have nine children with.\nProduced by Sarah Ferguson--herself no stranger to the trials and tribulations that befall young royalty--and directed by Jean-Marc Vallee (C.R.A.Z.Y), THE YOUNG VICTORIA is a visually-stunning film that gives candid insight into the challenges faced by those growing up in the public eye.\n\nFormat : MPEG-4\nFormat profile : Base Media / Version 2\nCodec ID : mp42\nFile size : 900 MiB\nDuration : 1h 40mn\nOverall bit rate : 1 252 Kbps\nEncoded date : UTC 2009-07-20 16:41:36\nTagged date : UTC 2009-07-20 20:44:52\nWriting application : HandBrake 0.9.3 2008112300\n\nVideo\nID : 1\nFormat : AVC\nFormat/Info : Advanced Video Codec\n\nFormat profile : &lt;a class=&quot;__cf_email__&quot; href=&quot;/cdn-cgi/l/email-protection&quot; data-cfemail=&quot;d499b5bdba9498e0fae4&quot;&gt;[email&amp;#160;protected]&lt;/a&gt;&lt;script cf-hash='f9e31' type=&quot;text/javascript&quot;&gt;\n/* &lt;![CDATA[ */!function(){try{var t=&quot;currentScript&quot;in document?document.currentScript:function(){for(var t=document.getElementsByTagName(&quot;script&quot;),e=t.length;e--;)if(t[e].getAttribute(&quot;cf-hash&quot;))return t[e]}();if(t&amp;&amp;t.previousSibling){var e,r,n,i,c=t.previousSibling,a=c.getAttribute(&quot;data-cfemail&quot;);if(a){for(e=&quot;&quot;,r=parseInt(a.substr(0,2),16),n=2;a.length-n;n+=2)i=parseInt(a.substr(n,2),16)^r,e+=String.fromCharCode(i);e=document.createTextNode(e),c.parentNode.replaceChild(e,c)}}}catch(u){}}();/* ]]&gt; */&lt;/script&gt;\nFormat settings, CABAC : Yes\nFormat settings, ReFrames : 3 frames\nCodec ID : avc1\nCodec ID/Info : Advanced Video Coding\nDuration : 1h 40mn\nBit rate mode : Variable\nBit rate : 1 088 Kbps\nWidth : 720 pixels\nHeight : 436 pixels\nDisplay aspect ratio : 2.35\nFrame rate mode : Variable\nFrame rate : 25.000 fps\nMinimum frame rate : 12.500 fps\nMaximum frame rate : 25.000 fps\nResolution : 24 bits\nColorimetry : 4:2:0\nScan type : Progressive\nBits/(Pixel*Frame) : 0.139\nStream size : 782 MiB (87%)\nWriting library : x264 core 65\n\n\nAudio\nID : 2\nFormat : AAC\nFormat/Info : Advanced Audio Codec\nFormat version : Version 4\nFormat profile : LC\nFormat settings, SBR : No\nCodec ID : 40\nDuration : 1h 40mn\nBit rate mode : Variable\nBit rate : 160 Kbps\nMaximum bit rate : 216 Kbps\nChannel(s) : 2 channels\nChannel positions : L R\nSampling rate : 48.0 KHz\nResolution : 16 bits\nStream size : 115 MiB (13%)\nLanguage : English\nEncoded date : UTC 2009-07-20 16:41:36\nTagged date : UTC 2009-07-20 20:44:46","torrent":{"xt":"urn:btih:f0fea20f9178075500405bdcb71d5a943d81d14a","amp;dn":"THE+YOUNG+VICTORIA+2009+H.264+AAC+MP4+TFKC+BY+STIG","amp;tr":["udp%3A%2F%2Ftracker.openbittorrent.com%3A80","udp%3A%2F%2Fopen.demonii.com%3A1337","udp%3A%2F%2Ftracker.coppersurfer.tk%3A6969","udp%3A%2F%2Fexodus.desync.com%3A6969"],"infoHash":"f0fea20f9178075500405bdcb71d5a943d81d14a","infoHashBuffer":{"type":"Buffer","data":[240,254,162,15,145,120,7,85,0,64,91,220,183,29,90,148,61,129,209,74]},"announce":[],"urlList":[]}}